<?xml version="1.0" standalone="no"?>
<!DOCTYPE svg PUBLIC "-//W3C//DTD SVG 20010904//EN"
 "http://www.w3.org/TR/2001/REC-SVG-20010904/DTD/svg10.dtd">
<svg version="1.0" xmlns="http://www.w3.org/2000/svg"
 width="300.000000pt" height="300.000000pt" viewBox="0 0 300.000000 300.000000"
 preserveAspectRatio="xMidYMid meet">
<metadata>
Created by potrace 1.11, written by Peter Selinger 2001-2013
</metadata>
<g transform="translate(0.000000,300.000000) scale(0.100000,-0.100000)"
fill="#000000" stroke="none">
<path d="M1471 2050 c-114 -24 -283 -96 -378 -161 -33 -23 -53 -29 -95 -29
-133 0 -335 -48 -451 -106 -61 -31 -169 -105 -163 -112 3 -2 19 6 35 17 57 41
202 102 299 127 64 17 139 27 221 31 l124 6 83 53 c153 96 302 137 489 136
197 0 392 -50 685 -172 171 -71 210 -101 255 -194 22 -46 24 -48 30 -24 7 27
-10 105 -27 125 -7 9 -4 24 11 49 32 53 18 64 -85 64 -68 0 -97 5 -166 31
-163 61 -285 100 -403 130 -101 26 -144 31 -270 34 -82 2 -170 0 -194 -5z"/>
<path d="M1762 1901 l-23 -59 -263 -7 c-145 -4 -270 -11 -277 -16 -8 -5 124
-9 311 -9 363 0 408 6 486 62 24 17 44 36 44 41 0 6 -8 3 -18 -6 -39 -36 -106
-57 -181 -57 -63 0 -72 2 -67 16 8 21 20 94 15 94 -2 0 -14 -26 -27 -59z"/>
<path d="M805 1751 c-74 -20 -142 -68 -167 -115 -7 -15 -1 -12 23 11 102 96
254 98 362 4 20 -18 44 -31 54 -29 14 3 11 10 -20 44 -60 66 -176 105 -252 85z"/>
<path d="M2165 1754 c-58 -15 -90 -29 -131 -60 l-44 -34 -213 -15 c-116 -9
-221 -17 -232 -19 -11 -2 89 -4 221 -5 l242 -1 33 31 c56 52 87 64 174 64 89
0 131 -15 184 -67 17 -17 31 -26 31 -21 0 17 -85 92 -120 107 -40 16 -116 27
-145 20z"/>
<path d="M430 1476 c0 -3 -16 -80 -35 -172 -19 -91 -35 -168 -35 -170 0 -3 21
-4 47 -2 l47 3 9 45 c5 25 13 63 19 85 l11 40 16 -55 c14 -47 21 -55 43 -58
23 -3 33 5 64 53 20 30 39 54 41 52 2 -2 -3 -36 -12 -76 -8 -40 -15 -77 -15
-82 0 -5 20 -9 45 -9 38 0 45 3 50 23 15 66 65 309 65 317 0 6 -21 10 -47 10
l-48 -1 -60 -89 c-33 -48 -61 -87 -63 -85 -1 1 -13 40 -26 86 l-22 84 -47 3
c-26 2 -47 1 -47 -2z"/>
<path d="M830 1476 c0 -3 16 -49 36 -103 36 -99 37 -116 18 -210 l-6 -33 45 0
c50 0 50 0 71 105 4 17 45 78 92 138 l85 107 -53 0 -53 -1 -49 -66 -50 -67
-21 64 -22 65 -46 3 c-26 2 -47 1 -47 -2z"/>
<path d="M1186 1463 c-7 -24 -66 -304 -66 -315 0 -4 18 -8 40 -8 33 0 40 4 45
23 3 12 11 51 19 86 8 34 17 65 19 67 2 2 11 -23 21 -57 15 -56 18 -60 44 -57
20 2 37 18 66 60 22 32 41 56 43 54 2 -1 -3 -35 -12 -75 -21 -102 -21 -101 25
-101 22 0 40 2 40 5 0 4 55 269 65 313 5 20 2 22 -38 22 -43 0 -43 0 -106 -91
-35 -50 -66 -87 -70 -82 -5 4 -18 45 -31 91 l-23 82 -38 0 c-27 0 -39 -5 -43
-17z"/>
<path d="M1652 1463 c-18 -8 -43 -28 -56 -44 -31 -36 -61 -147 -52 -193 9 -45
54 -83 110 -91 56 -9 144 16 174 48 51 54 77 182 51 241 -7 14 -26 32 -44 41
-43 20 -141 19 -183 -2z m144 -78 c14 -21 15 -32 5 -73 -17 -64 -34 -88 -75
-102 -42 -13 -88 3 -94 34 -9 43 10 110 38 138 39 38 102 40 126 3z"/>
<path d="M1917 1473 c-4 -3 -7 -19 -7 -35 0 -27 2 -28 45 -28 25 0 45 -3 45
-7 0 -5 -11 -61 -25 -126 -14 -64 -25 -122 -25 -127 0 -6 18 -10 40 -10 33 0
40 4 45 23 3 12 15 72 28 132 l23 110 52 3 c32 2 52 8 52 15 0 7 3 22 6 35 l6
22 -139 0 c-77 0 -143 -3 -146 -7z"/>
<path d="M2230 1468 c0 -7 -3 -23 -6 -35 -6 -22 -3 -23 46 -23 44 0 51 -2 46
-17 -3 -10 -15 -63 -26 -118 -12 -55 -24 -108 -26 -117 -5 -15 2 -18 39 -18
42 0 45 2 51 33 3 17 15 78 27 134 l21 102 51 3 c49 3 52 4 58 36 l6 32 -143
0 c-109 0 -144 -3 -144 -12z"/>
<path d="M2550 1476 c0 -2 -16 -77 -35 -167 -19 -90 -35 -165 -35 -167 0 -2
19 -2 42 0 l43 3 32 150 c42 194 42 185 -7 185 -22 0 -40 -2 -40 -4z"/>
</g>
</svg>
